<svg id="Flat" height="512" viewBox="0 0 512 512" width="512" xmlns="http://www.w3.org/2000/svg"><g id="_17_copy_4" data-name="17 copy 4"><g><circle cx="248.2" cy="256.643" fill="#d3463d" r="216"/><g><ellipse cx="248.2" cy="256.643" fill="#ffd4cf" rx="176" ry="169.231"/><ellipse cx="248.2" cy="256.643" fill="#ffc6bf" rx="144" ry="137.231"/></g><g><path d="m321.99 195.6c-16.689 28.063-50.585 28.063-67.274 0-29.205-49.11-29.205-64.015 0-113.125 16.689-28.063 39.595-18.365 67.274 0 50.031 33.193 29.204 64.011 0 113.125z" fill="#fdbf44"/><path d="m313.994 178.239a111.026 111.026 0 0 1 12.611 9.612c4.931-8.275 9.5-16.023 13.372-23.354-4.47-8.842-12.734-17.467-25.983-26.258-27.679-18.365-50.585-28.062-67.273 0-4.214 7.086-7.808 13.451-10.805 19.319a136.448 136.448 0 0 0 9.858 22.283c.314-.533.625-1.061.947-1.6 16.688-28.064 39.594-18.367 67.273-.002z" fill="#cc751f"/></g><g><path d="m233.377 203.364c-16.689 28.063-50.585 28.063-67.274 0-29.2-49.11-29.2-64.015 0-113.125 16.689-28.062 39.6-18.365 67.274 0 50.031 33.197 29.205 64.015 0 113.125z" fill="#fdbf44"/><path d="m225.381 186.008a111.025 111.025 0 0 1 12.611 9.611c4.931-8.275 9.5-16.023 13.372-23.354-4.47-8.841-12.734-17.466-25.983-26.257-27.679-18.366-50.585-28.063-67.273 0-4.214 7.085-7.808 13.45-10.805 19.318a136.448 136.448 0 0 0 9.858 22.283c.315-.532.625-1.06.947-1.6 16.692-28.064 39.592-18.367 67.273-.001z" fill="#cc751f"/></g><g><path d="m179.545 224.475c5.684 32.238-14.569 62.755-45.237 68.163s-60.136-16.338-65.821-48.58 7.707-101.669 38.375-107.076 66.999 55.256 72.683 87.493z" fill="#ffefed"/><circle cx="124.515" cy="237.584" fill="#fdbf44" r="32"/></g><path d="m172.446 375.693a36.03 36.03 0 0 1 -43.3-43.3 32.132 32.132 0 0 0 -9.063 7.21l-.053-.052-80.775 101.092a16 16 0 0 0 1.225 21.257l2.468 2.467a16 16 0 0 0 21.252 1.221l101.088-80.779-.052-.052a32.14 32.14 0 0 0 7.21-9.064z" fill="#994635"/><path d="m280.2 264.643h-16a8 8 0 0 0 -16 0h-16a24 24 0 0 1 48 0z" fill="#cc751f"/><path d="m240.156 312.636a23.858 23.858 0 0 1 -11.959-3.21l8-13.858a8 8 0 1 0 8-13.855l8-13.858a24 24 0 0 1 -12.041 44.781z" fill="#cc751f"/><path d="m224.243 288.636a24 24 0 0 1 -12.04-44.781l8 13.858a8 8 0 1 0 8 13.855l8 13.858a23.853 23.853 0 0 1 -11.96 3.21z" fill="#fdbf44"/><path d="m280.156 288.636a23.858 23.858 0 0 1 -11.959-3.21l8-13.858a8 8 0 1 0 8-13.855l8-13.858a24 24 0 0 1 -12.041 44.781z" fill="#fdbf44"/><g fill="#cc751f"><path d="m333.906 352.643c-11.517 0-17.65-5.921-22.128-10.246-4.026-3.886-6.175-5.754-11.014-5.754s-6.99 1.868-11.015 5.754c-4.478 4.325-10.611 10.246-22.129 10.246s-17.65-5.921-22.127-10.246c-4.026-3.886-6.176-5.754-11.014-5.754s-6.989 1.868-11.015 5.754c-4.477 4.325-10.61 10.246-22.127 10.246s-17.649-5.922-22.126-10.246c-4.024-3.886-6.174-5.754-11.011-5.754v-16c11.516 0 17.649 5.921 22.126 10.245 4.025 3.886 6.174 5.755 11.011 5.755s6.988-1.869 11.014-5.755c4.478-4.325 10.61-10.245 22.128-10.245s17.649 5.92 22.127 10.245c4.026 3.886 6.175 5.755 11.014 5.755s6.989-1.869 11.015-5.755c4.478-4.325 10.611-10.245 22.129-10.245s17.65 5.92 22.128 10.245c4.025 3.886 6.175 5.755 11.014 5.755s6.99-1.869 11.017-5.756c4.478-4.324 10.612-10.244 22.13-10.244s17.652 5.92 22.13 10.245c2.139 2.064 3.986 3.847 6.117 4.812l-6.6 14.576c-4.652-2.106-7.828-5.172-10.63-7.878-4.027-3.887-6.177-5.755-11.017-5.755s-6.991 1.868-11.017 5.755c-4.478 4.324-10.612 10.245-22.13 10.245z"/><path d="m357.906 376.643c-4.839 0-6.989-1.869-11.014-5.755-4.478-4.325-10.611-10.245-22.128-10.245s-17.651 5.92-22.129 10.245c-4.026 3.886-6.176 5.755-11.015 5.755s-6.988-1.869-11.014-5.755c-4.478-4.325-10.61-10.245-22.127-10.245s-17.65 5.92-22.128 10.245c-4.026 3.886-6.175 5.755-11.014 5.755s-6.986-1.869-11.011-5.755c-4.477-4.324-10.61-10.245-22.126-10.245v16c4.837 0 6.987 1.868 11.011 5.754 4.477 4.324 10.61 10.246 22.126 10.246s17.65-5.921 22.127-10.246c4.026-3.886 6.176-5.754 11.015-5.754s6.988 1.868 11.014 5.754c4.477 4.325 10.61 10.246 22.127 10.246s17.651-5.921 22.129-10.246c4.025-3.886 6.175-5.754 11.015-5.754s6.988 1.868 11.014 5.754c3.856 3.724 8.94 8.632 17.632 9.923q3.59-2.575 7.031-5.32l-1.021-10.427c-.477.046-.986.07-1.514.07z"/><path d="m345.337 304.643c-11.516 0-17.649-5.922-22.126-10.246-4.024-3.886-6.174-5.754-11.011-5.754v-16c11.516 0 17.649 5.921 22.126 10.245 4.025 3.886 6.174 5.755 11.011 5.755s6.988-1.869 11.014-5.755c4.478-4.325 10.61-10.245 22.128-10.245v16c-4.839 0-6.989 1.868-11.015 5.754-4.477 4.325-10.61 10.246-22.127 10.246z"/><path d="m345.337 264.643c-11.516 0-17.649-5.922-22.126-10.246-4.024-3.886-6.174-5.754-11.011-5.754v-16c11.516 0 17.649 5.921 22.126 10.245 4.025 3.886 6.174 5.755 11.011 5.755s6.988-1.869 11.014-5.755c4.478-4.325 10.61-10.245 22.128-10.245v16c-4.839 0-6.989 1.868-11.015 5.754-4.477 4.325-10.61 10.246-22.127 10.246z"/></g><g><path d="m458.334 483.382 11.647-2.054a10 10 0 0 0 8.08-11.754l-84.639-435.925a10 10 0 0 0 -11.553-7.942l-4.108.724a10 10 0 0 0 -8.111 11.585l77.1 437.254a10 10 0 0 0 11.584 8.112z" fill="#994635"/><path d="m417.924 311.792 13.892 78.785 29.884-5.27-15.25-78.545z" fill="#f2b741"/><path d="m438.638 486.855-11.646 2.053a10 10 0 0 1 -11.613-8.281l-69.561-438.584a10 10 0 0 1 8.14-11.415l4.107-.724a10 10 0 0 1 11.585 8.112l77.1 437.254a10 10 0 0 1 -8.112 11.585z" fill="#a64c39"/><path d="m417.924 311.792 13.892 78.785-29.884 5.269-12.533-79.024z" fill="#fdbf44"/></g></g></g></svg>